<?xml version="1.0" encoding="UTF-8" standalone="no"?>
<!-- Created with Inkscape (http://www.inkscape.org/) -->

<svg
   xmlns:dc="http://purl.org/dc/elements/1.1/"
   xmlns:cc="http://creativecommons.org/ns#"
   xmlns:rdf="http://www.w3.org/1999/02/22-rdf-syntax-ns#"
   xmlns:svg="http://www.w3.org/2000/svg"
   xmlns="http://www.w3.org/2000/svg"
   xmlns:sodipodi="http://sodipodi.sourceforge.net/DTD/sodipodi-0.dtd"
   xmlns:inkscape="http://www.inkscape.org/namespaces/inkscape"
   width="210mm"
   height="297mm"
   viewBox="0 0 210 297"
   version="1.1"
   id="svg8"
   inkscape:version="0.92.3 (2405546, 2018-03-11)"
   sodipodi:docname="drawing.svg">
  <defs
     id="defs2" />
  <sodipodi:namedview
     id="base"
     pagecolor="#ffffff"
     bordercolor="#666666"
     borderopacity="1.0"
     inkscape:pageopacity="0.0"
     inkscape:pageshadow="2"
     inkscape:zoom="0.98994949"
     inkscape:cx="398.72444"
     inkscape:cy="626.04546"
     inkscape:document-units="mm"
     inkscape:current-layer="layer1"
     showgrid="true"
     inkscape:snap-grids="true"
     inkscape:window-width="1920"
     inkscape:window-height="1027"
     inkscape:window-x="-8"
     inkscape:window-y="-8"
     inkscape:window-maximized="1">
    <inkscape:grid
       type="xygrid"
       id="grid18"
       spacingx="13.229167"
       spacingy="13.229167" />
  </sodipodi:namedview>
  <metadata
     id="metadata5">
    <rdf:RDF>
      <cc:Work
         rdf:about="">
        <dc:format>image/svg+xml</dc:format>
        <dc:type
           rdf:resource="http://purl.org/dc/dcmitype/StillImage" />
        <dc:title></dc:title>
      </cc:Work>
    </rdf:RDF>
  </metadata>
  <g
     inkscape:label="Layer 1"
     inkscape:groupmode="layer"
     id="layer1">
    <rect
       id="rect20"
       width="13.229167"
       height="13.229167"
       x="66.145836"
       y="85.333321"
       style="stroke-width:0.26458332" />
    <rect
       id="rect20-7"
       width="13.229167"
       height="13.229167"
       x="66.145836"
       y="98.562485"
       style="stroke-width:0.26458332" />
    <rect
       id="rect20-8"
       width="13.229167"
       height="13.229167"
       x="66.145836"
       y="98.562485"
       style="stroke-width:0.26458332" />
    <rect
       id="rect20-81"
       width="13.229167"
       height="13.229167"
       x="66.145836"
       y="111.79166"
       style="stroke-width:0.26458332" />
    <rect
       id="rect20-3"
       width="13.229167"
       height="13.229167"
       x="66.145836"
       y="125.02082"
       style="stroke-width:0.26458332" />
    <rect
       id="rect20-6"
       width="13.229167"
       height="13.229167"
       x="66.145836"
       y="138.24998"
       style="stroke-width:0.26458332" />
    <rect
       id="rect20-35"
       width="13.229167"
       height="13.229167"
       x="66.145836"
       y="138.24998"
       style="stroke-width:0.26458332" />
    <rect
       id="rect20-79"
       width="13.229167"
       height="13.229167"
       x="66.145836"
       y="151.47916"
       style="stroke-width:0.26458332" />
    <rect
       id="rect20-1"
       width="13.229167"
       height="13.229167"
       x="66.145836"
       y="151.47916"
       style="stroke-width:0.26458332" />
    <rect
       id="rect20-65"
       width="13.229167"
       height="13.229167"
       x="79.375"
       y="151.47916"
       style="stroke-width:0.26458332" />
    <rect
       id="rect20-4"
       width="13.229167"
       height="13.229167"
       x="92.604164"
       y="151.47916"
       style="stroke-width:0.26458332" />
    <rect
       id="rect20-0"
       width="13.229167"
       height="13.229167"
       x="92.604164"
       y="151.47916"
       style="stroke-width:0.26458332" />
    <rect
       id="rect20-13"
       width="13.229167"
       height="13.229167"
       x="105.83334"
       y="151.47916"
       style="stroke-width:0.26458332" />
    <path
       style="fill:none;stroke:#000000;stroke-width:0.26458332px;stroke-linecap:butt;stroke-linejoin:miter;stroke-opacity:1"
       d="M 66.145835,85.333326 52.916669,72.104159 v 79.375001 l 13.229166,13.22917"
       id="path179"
       inkscape:connector-curvature="0" />
    <path
       style="fill:none;stroke:#000000;stroke-width:0.26458332px;stroke-linecap:butt;stroke-linejoin:miter;stroke-opacity:1"
       d="M 52.916669,72.104159 H 66.145835 L 79.375002,85.333326"
       id="path181"
       inkscape:connector-curvature="0" />
    <path
       style="fill:none;stroke:#000000;stroke-width:0.26458332px;stroke-linecap:butt;stroke-linejoin:miter;stroke-opacity:1"
       d="M 119.0625,151.47916 105.83333,138.24999 H 79.375002"
       id="path185"
       inkscape:connector-curvature="0" />
    <path
       style="fill:none;stroke:#000000;stroke-width:0.26458332px;stroke-linecap:butt;stroke-linejoin:miter;stroke-opacity:1"
       d="m 52.916669,151.47916 13.229166,-13.22917 v 0 L 52.916669,125.02083 66.145835,111.79166 52.916669,98.562495 66.145835,85.333326"
       id="path187"
       inkscape:connector-curvature="0" />
    <path
       style="fill:none;stroke:#000000;stroke-width:0.26458332px;stroke-linecap:butt;stroke-linejoin:miter;stroke-opacity:1"
       d="M 66.145835,72.104159 V 85.333326"
       id="path189"
       inkscape:connector-curvature="0" />
    <path
       style="fill:none;stroke:#000000;stroke-width:0.26458332px;stroke-linecap:butt;stroke-linejoin:miter;stroke-opacity:1"
       d="M 79.375002,85.333326 52.916669,72.104159"
       id="path191"
       inkscape:connector-curvature="0" />
    <path
       style="fill:none;stroke:#000000;stroke-width:0.26458332px;stroke-linecap:butt;stroke-linejoin:miter;stroke-opacity:1"
       d="M 119.0625,151.47916 79.375002,138.24999"
       id="path193"
       inkscape:connector-curvature="0" />
    <path
       style="fill:#ffdd55;stroke:#000000;stroke-width:0.26458332px;stroke-linecap:butt;stroke-linejoin:miter;stroke-opacity:1"
       d="M 105.83333,138.24999 79.375002,151.47916"
       id="path195"
       inkscape:connector-curvature="0" />
    <path
       style="fill:#ffdd55;stroke-width:1.01015258"
       d="m 225.2226,595.81475 -23.47807,-23.49402 23.73867,-23.72255 23.73867,-23.72255 v 47.21657 c 0,25.96912 -0.11727,47.21658 -0.2606,47.21658 -0.14333,0 -10.82573,-10.57232 -23.73867,-23.49403 z"
       id="path197"
       inkscape:connector-curvature="0"
       transform="scale(0.26458333)" />
    <path
       style="fill:#ffdd55;stroke-width:1.01015258"
       d="M 200.73454,422.32903 V 374.3521 l 23.98847,23.98846 23.98846,23.98847 -23.98846,23.98846 -23.98847,23.98847 z"
       id="path199"
       inkscape:connector-curvature="0"
       transform="scale(0.26458333)" />
    <path
       style="fill:#ffdd55;stroke-width:1.01015258"
       d="m 226.99851,284.94828 -21.71828,-11.00364 21.97082,-0.054 21.97082,-0.054 v 11.11168 c 0,6.11143 -0.11365,11.08737 -0.25254,11.05766 -0.1389,-0.0297 -10.02577,-5.00565 -21.97082,-11.05766 z"
       id="path201"
       inkscape:connector-curvature="0"
       transform="scale(0.26458333)" />
    <path
       style="fill:#ffdd55;stroke-width:1.01015258"
       d="m 332.55945,532.43566 -26.26397,-8.932 44.44672,-0.0261 44.44671,-0.0262 -17.67767,8.98431 c -9.72272,4.94136 -17.90496,8.97253 -18.18275,8.95815 -0.27779,-0.0144 -12.32386,-4.04556 -26.76904,-8.95815 z"
       id="path203"
       inkscape:connector-curvature="0"
       transform="scale(0.26458333)" />
    <path
       style="fill:#ffdd55;stroke-width:1.01015258"
       d="m 332.2053,557.68222 27.93012,-14.04036 41.7704,14.01585 41.77041,14.01585 -69.70053,0.0245 -69.70052,0.0245 27.93012,-14.04035 z"
       id="path205"
       inkscape:connector-curvature="0"
       transform="scale(0.26458333)" />
    <path
       style="fill:#ffdd55;stroke-width:1.01015258"
       d="m 262.10131,322.57949 c 6.8059,-0.17476 17.94283,-0.17476 24.74874,0 6.8059,0.17477 1.23743,0.31776 -12.37437,0.31776 -13.61181,0 -19.18027,-0.14299 -12.37437,-0.31776 z"
       id="path207"
       inkscape:connector-curvature="0"
       transform="scale(0.26458333)" />
    <path
       style="fill:#ffdd55;stroke-width:1.01015258"
       d="m 251.24217,310.70278 v -11.62115 l 22.47589,11.22891 c 12.36175,6.17591 22.6653,11.40543 22.8968,11.62115 0.23149,0.21573 -9.88266,0.39224 -22.4759,0.39224 h -22.89679 z"
       id="path209"
       inkscape:connector-curvature="0"
       transform="scale(0.26458333)" />
    <path
       style="fill:#ffdd55;stroke-width:1.01015258"
       d="m 250.23202,397.58029 v -24.74874 h 24.74874 24.74873 v 24.74874 24.74874 h -24.74873 -24.74874 z"
       id="path211"
       inkscape:connector-curvature="0"
       transform="scale(0.26458333)" />
    <path
       style="fill:#ffdd55;stroke-width:1.01015258"
       d="m 250.23202,522.33413 v -49.49747 h 24.74874 24.74873 v 49.49747 49.49748 h -24.74873 -24.74874 z"
       id="path213"
       inkscape:connector-curvature="0"
       transform="scale(0.26458333)" />
    <path
       style="fill:#ffdd55;stroke-width:1.01015258"
       d="m 250.23202,597.5905 v -24.74874 h 24.74874 24.74873 v 24.74874 24.74873 h -24.74873 -24.74874 z"
       id="path215"
       inkscape:connector-curvature="0"
       transform="scale(0.26458333)" />
    <path
       style="fill:#ffdd55;stroke-width:1.01015258"
       d="m 350.23712,597.5905 v -24.74874 h 24.74874 24.74873 v 24.74874 24.74873 h -24.74873 -24.74874 z"
       id="path217"
       inkscape:connector-curvature="0"
       transform="scale(0.26458333)" />
    <path
       style="fill:#ffdd55;stroke-width:1.01015258"
       d="m 350.23712,597.5905 v -24.74874 h 24.74874 24.74873 v 24.74874 24.74873 h -24.74873 -24.74874 z"
       id="path219"
       inkscape:connector-curvature="0"
       transform="scale(0.26458333)" />
    <path
       style="fill:#ffdd55;stroke-width:1.01015258"
       d="m 300.73964,597.5905 v -24.74874 h 24.24367 24.24366 v 24.74874 24.74873 h -24.24366 -24.24367 z"
       id="path221"
       inkscape:connector-curvature="0"
       transform="scale(0.26458333)" />
    <path
       style="fill:#ffdd55;stroke-width:1.01015258"
       d="m 400.74475,597.5905 v -24.74874 h 24.24366 24.24366 v 24.74874 24.74873 h -24.24366 -24.24366 z"
       id="path223"
       inkscape:connector-curvature="0"
       transform="scale(0.26458333)" />
    <path
       style="fill:#ffdd55;stroke-width:1.01015258"
       d="m 250.23202,447.58284 v -24.24366 h 24.74874 24.74873 v 24.24366 24.24366 h -24.74873 -24.74874 z"
       id="path225"
       inkscape:connector-curvature="0"
       transform="scale(0.26458333)" />
    <path
       style="fill:#222b00;stroke-width:1.01015258"
       d="m 250.23202,347.57774 v -24.24366 h 24.74874 24.74873 v 24.24366 24.24366 h -24.74873 -24.74874 z"
       id="path227"
       inkscape:connector-curvature="0"
       transform="scale(0.26458333)" />
    <path
       style="fill:#c8beb7;stroke-width:1.01015258"
       d="m 250.23202,397.58029 v -24.74874 h 24.74874 24.74873 v 24.74874 24.74874 h -24.74873 -24.74874 z"
       id="path263"
       inkscape:connector-curvature="0"
       transform="scale(0.26458333)" />
    <path
       style="fill:#c8beb7;stroke-width:1.01015258"
       d="m 250.23202,447.58284 v -24.24366 h 24.74874 24.74873 v 24.24366 24.24366 h -24.74873 -24.74874 z"
       id="path265"
       inkscape:connector-curvature="0"
       transform="scale(0.26458333)" />
    <path
       style="fill:#c8beb7;stroke-width:1.01015258"
       d="m 250.23202,522.33413 v -49.49747 h 24.74874 24.74873 v 49.49747 49.49748 h -24.74873 -24.74874 z"
       id="path267"
       inkscape:connector-curvature="0"
       transform="scale(0.26458333)" />
    <path
       style="fill:#c8beb7;stroke-width:1.01015258"
       d="m 250.23202,597.5905 v -24.74874 h 24.74874 24.74873 v 24.74874 24.74873 h -24.74873 -24.74874 z"
       id="path271"
       inkscape:connector-curvature="0"
       transform="scale(0.26458333)" />
    <path
       style="fill:#c8beb7;stroke-width:1.01015258"
       d="m 300.73964,597.5905 v -24.74874 h 24.24367 24.24366 v 24.74874 24.74873 h -24.24366 -24.24367 z"
       id="path273"
       inkscape:connector-curvature="0"
       transform="scale(0.26458333)" />
    <path
       style="fill:#c8beb7;stroke-width:1.01015258"
       d="m 350.23712,597.5905 v -24.74874 h 24.74874 24.74873 v 24.74874 24.74873 h -24.74873 -24.74874 z"
       id="path275"
       inkscape:connector-curvature="0"
       transform="scale(0.26458333)" />
    <path
       style="fill:#1a1a1a;stroke-width:1.01015258"
       d="m 400.74475,597.5905 v -24.74874 h 24.24366 24.24366 v 24.74874 24.74873 h -24.24366 -24.24366 z"
       id="path277"
       inkscape:connector-curvature="0"
       transform="scale(0.26458333)" />
    <path
       style="fill:#1a1a1a;stroke-width:1.01015258"
       d="m 250.23202,397.58029 v -24.74874 h 24.74874 24.74873 v 24.74874 24.74874 h -24.74873 -24.74874 z"
       id="path279"
       inkscape:connector-curvature="0"
       transform="scale(0.26458333)" />
    <path
       style="fill:#1a1a1a;stroke-width:1.01015258"
       d="m 250.09426,552.89125 c -0.0758,-10.4172 -0.4167,-43.59611 -0.75762,-73.73091 -0.51052,-45.12691 -0.38257,-54.88143 0.72546,-55.30585 0.73992,-0.28342 12.44506,-0.51531 26.01142,-0.51531 h 24.66612 v 36.20017 c 0,19.9101 -0.30106,53.32089 -0.66903,74.24621 l -0.66904,38.04605 h -24.58478 -24.58477 z m 37.82475,-80.80871 c -6.77356,-0.1745 -18.13778,-0.175 -25.25382,-10e-4 -7.11604,0.17388 -1.57403,0.31665 12.31557,0.31727 13.88959,6.2e-4 19.71181,-0.14165 12.93825,-0.31616 z"
       id="path281"
       inkscape:connector-curvature="0"
       transform="scale(0.26458333)" />
    <path
       style="fill:#1a1a1a;stroke-width:1.01015258"
       d="m 250.23202,597.5905 v -24.74874 h 24.74874 24.74873 v 24.74874 24.74873 h -24.74873 -24.74874 z"
       id="path283"
       inkscape:connector-curvature="0"
       transform="scale(0.26458333)" />
    <path
       style="fill:#1a1a1a;stroke-width:1.01015258"
       d="m 300.73964,597.5905 v -24.74874 h 24.24367 24.24366 v 24.74874 24.74873 h -24.24366 -24.24367 z"
       id="path285"
       inkscape:connector-curvature="0"
       transform="scale(0.26458333)" />
    <path
       style="fill:#1a1a1a;stroke-width:1.01015258"
       d="m 350.23712,597.5905 v -24.74874 h 24.74874 24.74873 v 24.74874 24.74873 h -24.74873 -24.74874 z"
       id="path287"
       inkscape:connector-curvature="0"
       transform="scale(0.26458333)" />
    <path
       style="fill:#1a1a1a;stroke-width:1.01015258"
       d="M 200.73454,522.33413 V 474.3572 l 23.98847,23.98847 23.98846,23.98846 -23.98846,23.98847 -23.98847,23.98846 z"
       id="path289"
       inkscape:connector-curvature="0"
       transform="scale(0.26458333)" />
    <path
       style="fill:#1a1a1a;stroke-width:1.01015258"
       d="m 225.2226,495.80965 -23.47807,-23.49403 23.48613,-23.46694 23.48613,-23.46694 0.33877,46.96097 c 0.18633,25.82853 0.1827,46.96096 -0.008,46.96096 -0.19076,0 -10.91196,-10.57231 -23.8249,-23.49402 z"
       id="path291"
       inkscape:connector-curvature="0"
       transform="scale(0.26458333)" />
    <path
       style="fill:#1a1a1a;stroke-width:1.01015258"
       d="m 225.2226,395.80455 -23.47807,-23.49403 23.73867,-23.72254 23.73867,-23.72255 V 372.082 c 0,25.96911 -0.11727,47.21657 -0.2606,47.21657 -0.14333,0 -10.82573,-10.57231 -23.73867,-23.49402 z"
       id="path293"
       inkscape:connector-curvature="0"
       transform="scale(0.26458333)" />
    <path
       style="fill:#1a1a1a;stroke-width:1.01015258"
       d="M 200.73454,322.32393 V 274.347 l 23.98847,23.98846 23.98846,23.98847 -23.98846,23.98846 -23.98847,23.98847 z"
       id="path295"
       inkscape:connector-curvature="0"
       transform="scale(0.26458333)" />
    <path
       style="fill:#1a1a1a;stroke-width:1.01015258"
       d="m 228.00866,298.58534 c -11.3793,-11.38947 -20.34855,-20.70813 -19.93165,-20.70813 0.41689,0 9.84504,4.54786 20.95142,10.10634 l 20.19344,10.10634 v 10.60179 c 0,5.83098 -0.1178,10.60179 -0.26178,10.60179 -0.14398,0 -9.57212,-9.31866 -20.95143,-20.70813 z"
       id="path297"
       inkscape:connector-curvature="0"
       transform="scale(0.26458333)" />
    <path
       style="fill:#1a1a1a;stroke-width:1.01015258"
       d="m 271.19268,307.11279 -19.95051,-10.05263 v -10.84492 -10.84493 l 20.70813,20.68965 c 11.38947,11.37931 20.70812,20.80745 20.70812,20.95143 0,0.77842 -3.25394,-0.72208 -21.46574,-9.8986 z"
       id="path299"
       inkscape:connector-curvature="0"
       transform="scale(0.26458333)" />
    <path
       style="fill:#1a1a1a;stroke-width:1.01015258"
       d="m 404.09792,556.34706 c -21.76807,-7.31764 -39.81862,-13.55141 -40.11233,-13.85282 -0.29371,-0.30141 7.63557,-4.61266 17.62062,-9.58055 l 18.15463,-9.03253 22.96507,22.96507 c 12.63079,12.63079 22.51176,22.92919 21.9577,22.88535 -0.55406,-0.0439 -18.81762,-6.06689 -40.58569,-13.38452 z"
       id="path301"
       inkscape:connector-curvature="0"
       transform="scale(0.26458333)" />
    <path
       style="fill:#4d4d4d;stroke-width:1.01015258"
       d="m 300.73964,547.58555 c 0,-12.77711 0.34077,-23.23111 0.75726,-23.23111 1.29498,0 53.24373,17.38716 54.01554,18.07892 0.40129,0.35967 -11.75842,6.89305 -27.02159,14.51863 l -27.75121,13.86468 z"
       id="path303"
       inkscape:connector-curvature="0"
       transform="scale(0.26458333)" />
    <path
       style="fill:#4d4d4d;stroke-width:1.01015258"
       d="m 200.73454,522.33413 v -46.96666 l 23.48333,23.48333 23.48334,23.48333 -23.48334,23.48333 -23.48333,23.48333 z"
       id="path305"
       inkscape:connector-curvature="0"
       transform="scale(0.26458333)" />
    <path
       style="fill:#4d4d4d;stroke-width:1.01015258"
       d="m 200.73454,522.33413 v -46.96666 l 23.48333,23.48333 23.48334,23.48333 -23.48334,23.48333 -23.48333,23.48333 z"
       id="path307"
       inkscape:connector-curvature="0"
       transform="scale(0.26458333)" />
    <path
       style="fill:#4d4d4d;stroke-width:1.01015258"
       d="m 225.23065,494.81784 -22.47598,-22.50292 22.69361,-22.67679 22.69361,-22.6768 0.28745,39.16972 c 0.1581,21.54334 0.0602,41.87421 -0.21763,45.17971 l -0.50507,6.00999 z"
       id="path309"
       inkscape:connector-curvature="0"
       transform="scale(0.26458333)" />
    <path
       style="fill:#4d4d4d;stroke-width:1.01015258"
       d="M 225.23074,394.80798 202.75485,372.31 l 23.23351,-23.21703 23.23351,-23.21704 -0.13681,29.79127 c -0.0752,16.38519 -0.41616,36.95695 -0.75761,45.71501 l -0.62081,15.92374 z"
       id="path311"
       inkscape:connector-curvature="0"
       transform="scale(0.26458333)" />
    <path
       style="fill:#4d4d4d;stroke-width:1.01015258"
       d="m 199.72439,322.32393 c 0,-26.85322 0.23647,-48.58758 0.52548,-48.29856 0.68691,0.68691 0.68691,95.9102 0,96.59711 -0.28901,0.28902 -0.52548,-21.44533 -0.52548,-48.29855 z"
       id="path313"
       inkscape:connector-curvature="0"
       transform="scale(0.26458333)" />
    <path
       style="fill:#4d4d4d;stroke-width:1.01015258"
       d="m 200.73454,322.32393 v -46.96667 l 23.48333,23.48334 23.48334,23.48333 -23.48334,23.48333 -23.48333,23.48333 z"
       id="path315"
       inkscape:connector-curvature="0"
       transform="scale(0.26458333)" />
    <path
       style="fill:#4d4d4d;stroke-width:1.01015258"
       d=""
       id="path317"
       inkscape:connector-curvature="0"
       transform="scale(0.26458333)" />
    <path
       style="fill:#4d4d4d;stroke-width:1.01015258"
       d="m 229.02905,298.60579 c -10.27267,-10.28955 -18.34443,-18.70827 -17.93725,-18.70827 0.40719,0 9.15302,4.19906 19.4352,9.33124 l 18.69487,9.33123 -0.11952,6.57867 c -0.25685,14.13816 0.95882,14.5338 -20.0733,-6.53287 z"
       id="path319"
       inkscape:connector-curvature="0"
       transform="scale(0.26458333)" />
    <path
       style="fill:#4d4d4d;stroke-width:1.01015258"
       d="m 269.67745,305.86403 -18.43528,-9.27338 v -10.10436 -10.10436 l 19.1929,19.17295 c 10.55609,10.54513 19.1929,19.29109 19.1929,19.43547 0,0.7682 -3.09514,-0.64766 -19.95052,-9.12632 z"
       id="path321"
       inkscape:connector-curvature="0"
       transform="scale(0.26458333)" />
    <path
       style="fill:#000000;stroke-width:1.01015258"
       d="m 404.15561,555.79784 c -19.50039,-6.59623 -36.24431,-12.43472 -37.2087,-12.97443 -1.4155,-0.79215 1.53776,-2.65691 15.32309,-9.67538 l 17.07654,-8.69411 21.65096,21.66854 c 11.90803,11.91769 20.9675,21.66854 20.13217,21.66854 -0.83534,0 -17.47366,-5.39692 -36.97406,-11.99316 z"
       id="path323"
       inkscape:connector-curvature="0"
       transform="scale(0.26458333)" />
    <path
       style="fill:#000000;stroke-width:1.01015258"
       d="m 250.23202,347.57774 v -24.24366 h 24.74874 24.74873 v 24.24366 24.24366 h -24.74873 -24.74874 z"
       id="path325"
       inkscape:connector-curvature="0"
       transform="scale(0.26458333)" />
    <path
       style="fill:#000000;stroke-width:1.01015258"
       d="m 250.27804,547.33541 c 0.0253,-13.47291 -0.22907,-44.61586 -0.56531,-69.20654 -0.33623,-24.59069 -0.30756,-46.73603 0.0637,-49.21187 l 0.67504,-4.50154 10.74941,-0.3236 10.7494,-0.3236 -10.85914,-0.21454 -10.85914,-0.21454 v -25.25381 -25.25382 h 24.58663 24.58664 l 0.60741,35.60788 c 0.63689,37.33573 0.12098,121.67474 -0.90525,147.98735 l -0.60082,15.40483 H 274.3693 250.232 Z m 27.49452,-75.20983 c -1.24242,-0.23977 -3.51526,-0.24598 -5.05076,-0.0138 -1.53549,0.23219 -0.51896,0.42836 2.25896,0.43595 2.77791,0.008 4.03423,-0.18239 2.7918,-0.42216 z"
       id="path327"
       inkscape:connector-curvature="0"
       transform="scale(0.26458333)" />
    <path
       style="fill:#000000;stroke-width:1.01015258"
       d="m 250.23202,597.60814 v -24.73109 l 25.00127,-0.27018 c 13.7507,-0.1486 47.38878,-0.14818 74.75129,9.5e-4 l 49.75001,0.27114 v 24.73013 24.73014 h -49.47951 -49.47952 l -0.28931,-24.4962 -0.28932,-24.4962 -0.23372,24.4962 -0.23372,24.4962 h -24.74873 -24.74874 z"
       id="path329"
       inkscape:connector-curvature="0"
       transform="scale(0.26458333)" />
    <path
       style="fill:#000000;stroke-width:1.01015258"
       d="m 400.74475,597.5905 v -24.74874 h 23.6544 c 17.97835,0 23.77667,-0.30299 24.16391,-1.26269 0.28023,-0.69448 0.5454,10.44245 0.58926,24.74873 l 0.0798,26.01143 H 424.98846 400.7448 Z"
       id="path331"
       inkscape:connector-curvature="0"
       transform="scale(0.26458333)" />
    <path
       style="fill:#4d4d4d;stroke-width:1.01015258"
       d="m 402.90586,555.1987 c -18.53462,-6.30892 -34.12286,-11.89433 -34.64054,-12.412 -1.33517,-1.33517 -0.22296,-2.06408 16.35285,-10.71713 l 14.68308,-7.665 17.15935,17.40007 c 23.62768,23.95912 24.54177,24.98938 22.11049,24.92052 -1.08126,-0.0306 -17.13062,-5.21753 -35.66523,-11.52646 z"
       id="path335"
       inkscape:connector-curvature="0"
       transform="scale(0.26458333)" />
  </g>
</svg>
